:SAMPLES-PER-SECOND 30
:FULLY-SPECIFIED
:DEGREES
166
root  5.67868 38.3306 -34.6171 14.7664 77.2287 17.3586
RightUpLeg  -20.3886 -2.41069 -0.864357
RightLeg  -3.89519 -21.1537 5.97951
RightFoot  1.34099 -0.50322 4.79662
RightToes  0.00048216 0.542163 -0.142577
Spine  7.1084 -1.2245 -5.02428
Spine1  10.4512 -2.43502 2.66787
HEad  8.1619 8.93359 -5.96401
LeftShoulder1  7.92204 -12.5876 -42.7916
LeftArm  -11.7358 14.7621 -20.9961
LeftForeArm  73.6119 -79.1965 -89.3468
LeftHand  -0.25398 0.0180481 5.50724
RightShoulder  5.05168 9.29218 33.5347
RightArm  -15.1933 -29.6295 27.747
RightForeArm  73.0967 70.2627 141.683
RightHand  0.391729 -7.2872 -24.9735
LeftUpLeg  15.5432 14.7586 1.51804
LeftLeg  16.6492 15.4147 -3.25442
LeftFoot  -22.6195 -0.452902 -5.92332
LeftToes  1.06245e-005 4.65855e-005 -8.18504e-006
167
root  7.28461 38.1901 -34.8288 5.15413 79.9054 8.30157
RightUpLeg  -20.6404 -4.75073 0.681147
RightLeg  1.44828 -21.0807 5.46814
RightFoot  6.04663 0.279025 -1.50061
RightToes  0.00048216 0.542163 -0.142577
Spine  8.84414 -2.6325 0.707013
Spine1  10.71 -3.31712 0.881133
HEad  7.81861 8.30042 -6.60359
LeftShoulder1  8.01736 -12.7063 -43.0022
LeftArm  -11.2956 13.8719 -21.3796
LeftForeArm  68.6609 -79.1481 -84.2486
LeftHand  -0.25398 0.0180481 5.50724
RightShoulder  5.03237 9.34009 33.2384
RightArm  -14.8793 -29.0317 27.0441
RightForeArm  71.0267 70.6563 140.65
RightHand  0.128486 -6.02381 -26.0791
LeftUpLeg  18.0716 22.2409 7.04049
LeftLeg  20.1613 4.14681 -1.33464
LeftFoot  -23.1557 -0.783812 -8.86991
LeftToes  1.06245e-005 4.65855e-005 -8.18504e-006
168
root  8.87102 38.0148 -34.8236 -7.57541 80.2311 -4.35822
RightUpLeg  -23.0169 -10.0652 5.35642
RightLeg  9.64398 -14.9961 1.77909
RightFoot  8.98989 1.49948 -8.06977
RightToes  0.00048216 0.542163 -0.142577
Spine  10.3573 -3.07593 5.27324
Spine1  10.6794 -3.12652 -0.0325821
HEad  7.56862 7.85263 -7.32006
LeftShoulder1  8.14643 -12.8908 -43.2155
LeftArm  -10.9893 13.6392 -21.7175
LeftForeArm  62.6024 -78.97 -78.2916
LeftHand  -0.25398 0.0180481 5.50724
RightShoulder  5.04512 9.38959 33.187
RightArm  -14.2622 -28.0775 26.1085
RightForeArm  68.4631 71.3031 138.874
RightHand  0.0736764 -5.77028 -26.6389
LeftUpLeg  17.7282 24.8751 10.9968
LeftLeg  26.915 -0.580915 0.486031
LeftFoot  -20.8024 -1.07724 -14.9405
LeftToes  1.06245e-005 4.65855e-005 -8.18504e-006
169
root  10.3411 37.8936 -34.654 -16.2014 78.6826 -13.4785
RightUpLeg  -25.1738 -14.3479 10.4881
RightLeg  15.4928 -8.21768 -1.2082
RightFoot  8.61274 2.1738 -11.9979
RightToes  0.00048216 0.542163 -0.142577
Spine  11.9763 -2.60341 8.32064
Spine1  10.5145 -2.14929 -0.12755
HEad  7.38068 7.4785 -7.67541
LeftShoulder1  8.27995 -13.1102 -43.3519
LeftArm  -10.9224 13.4748 -21.8801
LeftForeArm  55.6091 -78.6088 -71.4821
LeftHand  -0.25398 0.0180481 5.50724
RightShoulder  5.11339 9.48658 33.419
RightArm  -13.4489 -26.4784 25.1379
RightForeArm  64.934 72.3358 135.711
RightHand  0.200497 -6.32646 -26.5509
LeftUpLeg  12.7864 22.5855 12.3013
LeftLeg  38.0736 2.69924 2.73492
LeftFoot  -11.7206 -0.0479191 -17.5218
LeftToes  1.06245e-005 4.65855e-005 -8.18504e-006
170
root  11.6455 37.7632 -34.5244 -21.1391 77.8091 -18.8081
RightUpLeg  -26.4593 -16.9948 12.9454
RightLeg  20.7246 -5.09135 -2.39114
RightFoot  5.22595 1.89448 -12.6651
RightToes  0.00048216 0.542163 -0.142577
Spine  14.1135 -2.4427 10.2502
Spine1  10.5035 -1.51382 0.212286
HEad  6.88414 6.97084 -7.50438
LeftShoulder1  8.39328 -13.3406 -43.344
LeftArm  -11.0231 12.7136 -21.8515
LeftForeArm  49.0691 -78.0941 -65.0675
LeftHand  -0.25398 0.0180481 5.50724
RightShoulder  5.19982 9.65356 33.5759
RightArm  -12.5428 -24.2355 24.4096
RightForeArm  60.2814 73.55 131.241
RightHand  0.272959 -6.65716 -26.2417
LeftUpLeg  4.60671 20.5859 12.5234
LeftLeg  51.5249 4.4338 6.37924
LeftFoot  1.85261 1.37698 -12.3612
LeftToes  1.06245e-005 4.65855e-005 -8.18504e-006
171
root  12.7715 37.6111 -34.4974 -27.6716 78.6531 -24.956
RightUpLeg  -26.6793 -19.9528 13.0646
RightLeg  25.7355 -4.14855 -2.42627
RightFoot  1.24718 1.33703 -11.994
RightToes  0.00048216 0.542163 -0.142577
Spine  17.1726 -3.11895 11.5648
Spine1  10.7134 -1.71578 1.08132
HEad  5.90149 6.10999 -6.99806
LeftShoulder1  8.47614 -13.5903 -43.1202
LeftArm  -11.0648 11.0333 -21.8466
LeftForeArm  42.4646 -77.3573 -58.5693
LeftHand  -0.25398 0.0180481 5.50724
RightShoulder  5.24917 9.82203 33.4469
RightArm  -11.7735 -21.669 24.0803
RightForeArm  54.6865 74.6612 126.049
RightHand  0.19601 -6.321 -26.2007
LeftUpLeg  -4.20512 16.8489 11.6335
LeftLeg  63.0235 3.58623 8.15824
LeftFoot  10.1149 0.962186 -5.16604
LeftToes  1.06245e-005 4.65855e-005 -8.18504e-006
172
root  13.9397 37.7598 -34.4395 -30.964 80.1233 -27.5614
RightUpLeg  -25.0902 -23.0759 11.6185
RightLeg  28.0832 -2.97874 -1.97325
RightFoot  -1.51749 0.968065 -11.3318
RightToes  0.00048216 0.542163 -0.142577
Spine  20.0169 -3.59382 11.4549
Spine1  10.8969 -2.07001 1.9236
HEad  4.75501 4.94084 -6.43134
LeftShoulder1  8.54534 -13.8602 -42.7759
LeftArm  -10.9357 8.68108 -21.9128
LeftForeArm  34.8022 -76.1581 -51.0806
LeftHand  -0.25398 0.0180481 5.50724
RightShoulder  5.27305 9.94383 33.2682
RightArm  -11.3357 -19.0439 24.0921
RightForeArm  47.8351 75.6659 119.835
RightHand  0.0457928 -5.65297 -26.5463
LeftUpLeg  -11.5112 13.4332 9.78211
LeftLeg  69.439 2.23114 7.4266
LeftFoot  9.8968 0.265084 -1.70929
LeftToes  1.06245e-005 4.65855e-005 -8.18504e-006
